<svg xmlns="http://www.w3.org/2000/svg" width="20.958" height="20.463" viewBox="0 0 20.958 20.463"><defs><style>.a{fill:#9ca0a4;stroke-miterlimit:10;}.b,.c{stroke:none;}.c{fill:#fff;}</style></defs><g transform="translate(-1.605 -1.591)"><g transform="translate(8.74 2.091)"><g class="a" transform="translate(-6.725 -2.091)"><path class="b" d="M 19.37500762939453 21.65386390686035 L 7.698267459869385 21.65386390686035 C 7.106467247009277 21.65386390686035 6.624997138977051 21.17240333557129 6.624997138977051 20.58060264587402 L 6.624997138977051 19.60733413696289 L 6.624997138977051 19.50733375549316 L 6.724997520446777 19.50733375549316 L 18.30071258544922 19.50733375549316 C 18.24738883972168 16.92574310302734 16.13076972961426 14.84223365783691 13.53663730621338 14.84223365783691 C 13.25311756134033 14.84223365783691 12.99818706512451 14.86402320861816 12.75728702545166 14.90884304046631 C 12.03470706939697 15.02050304412842 11.36836719512939 15.29911327362061 10.773756980896 15.7374439239502 L 10.71459770202637 15.78105354309082 L 10.65530776977539 15.73761367797852 C 10.0816068649292 15.31722354888916 9.399537086486816 15.03073310852051 8.682847023010254 14.90912342071533 L 8.491957664489746 14.87673377990723 L 8.628867149353027 14.73982334136963 C 9.23686695098877 14.13182353973389 9.928387641906738 13.65657329559326 10.68422698974609 13.3272533416748 C 11.55858707427979 12.90868377685547 12.51935768127441 12.69570350646973 13.53663730621338 12.69570350646973 C 17.34772682189941 12.69570350646973 20.44827651977539 15.79624366760254 20.44827651977539 19.60733413696289 L 20.44827651977539 20.58060264587402 C 20.44827651977539 21.17240333557129 19.96680641174316 21.65386390686035 19.37500762939453 21.65386390686035 Z M 13.53663730621338 11.92243385314941 C 12.4859676361084 11.92243385314941 11.48962688446045 11.59944343566895 10.65532684326172 10.98839378356934 C 10.11848735809326 10.61790370941162 9.647547721862793 10.11259365081787 9.295707702636719 9.528693199157715 L 9.244417190551758 9.443583488464355 L 9.329207420349121 9.391763687133789 C 9.971607208251953 8.999113082885742 10.44478702545166 8.371993064880371 10.62739753723145 7.67120361328125 L 10.82123756408691 7.672393321990967 C 10.99682712554932 8.381643295288086 11.46598720550537 9.008123397827148 12.10843753814697 9.391193389892578 C 12.54247760772705 9.642653465270996 13.03670692443848 9.775903701782227 13.53663730621338 9.775903701782227 C 15.09080696105957 9.775903701782227 16.35521697998047 8.511493682861328 16.35521697998047 6.957323551177979 C 16.35521697998047 6.261003494262695 16.10519790649414 5.596793651580811 15.65119743347168 5.087063312530518 C 15.11388683319092 4.483623504638672 14.34316730499268 4.137533664703369 13.53663730621338 4.137533664703369 C 13.03879737854004 4.137533664703369 12.5444974899292 4.27082347869873 12.107177734375 4.522983551025391 C 11.46375751495361 4.906643390655518 11.00651741027832 5.510543346405029 10.82093715667725 6.222713470458984 L 10.72650718688965 6.58509349822998 L 10.62770748138428 6.223873615264893 C 10.51161766052246 5.799403667449951 10.30024719238281 5.406273365020752 10.01643753051758 5.08699369430542 C 9.829277038574219 4.871813297271729 9.598627090454102 4.682083606719971 9.330206871032715 4.522283554077148 L 9.244467735290527 4.471233367919922 L 9.295317649841309 4.385393619537354 C 9.646047592163086 3.793273448944092 10.12073707580566 3.284193515777588 10.66805744171143 2.913193464279175 C 11.50491714477539 2.310453414916992 12.49766731262207 1.991003513336182 13.53663730621338 1.991003513336182 C 14.96500778198242 1.991003513336182 16.32243728637695 2.603063583374023 17.26086807250977 3.670243501663208 C 18.06091690063477 4.569373607635498 18.50174713134766 5.736903667449951 18.50174713134766 6.957323551177979 C 18.50174713134766 9.695093154907227 16.27440643310547 11.92243385314941 13.53663730621338 11.92243385314941 Z"/><path class="c" d="M 19.37500762939453 21.55386352539063 C 19.91042709350586 21.55386352539063 20.3482780456543 21.11602401733398 20.3482780456543 20.58060264587402 L 20.3482780456543 19.60733413696289 C 20.3482780456543 15.85087394714355 17.2931079864502 12.79570388793945 13.53663730621338 12.79570388793945 C 12.53409767150879 12.79570388793945 11.58034706115723 13.00913333892822 10.72416687011719 13.4189338684082 C 9.965557098388672 13.7494535446167 9.283787727355957 14.22632312774658 8.699577331542969 14.81053352355957 C 9.439897537231445 14.93615341186523 10.13020706176758 15.22886371612549 10.71441745758057 15.65695381164551 C 11.30837726593018 15.21910381317139 11.98892688751221 14.92639350891113 12.73899745941162 14.81053352355957 C 13.00121688842773 14.76174354553223 13.26343727111816 14.74223327636719 13.53663730621338 14.74223327636719 C 16.22226715087891 14.74223327636719 18.40174674987793 16.92171287536621 18.40174674987793 19.60733413696289 L 6.724997520446777 19.60733413696289 L 6.724997520446777 20.58060264587402 C 6.724997520446777 21.11602401733398 7.162847518920898 21.55386352539063 7.698267459869385 21.55386352539063 L 19.37500762939453 21.55386352539063 M 13.53663730621338 11.82243347167969 C 16.22226715087891 11.82243347167969 18.40174674987793 9.633193016052246 18.40174674987793 6.957323551177979 C 18.40174674987793 5.769403457641602 17.97365760803223 4.621733665466309 17.18576812744141 3.736283540725708 C 16.26128768920898 2.684963464736938 14.92823696136475 2.09100341796875 13.53663730621338 2.09100341796875 C 12.48531723022461 2.09100341796875 11.52180767059326 2.421523571014404 10.72416687011719 2.995963573455811 C 10.17899703979492 3.365513563156128 9.721627235412598 3.861903429031372 9.381357192993164 4.43635368347168 C 9.643577575683594 4.592463493347168 9.887507438659668 4.786383628845215 10.09117698669434 5.020553588867188 C 10.39364719390869 5.360833644866943 10.60708713531494 5.769403457641602 10.72416687011719 6.197493553161621 C 10.91930770874023 5.448643684387207 11.4047269821167 4.825413703918457 12.05722713470459 4.43635368347168 C 12.49507713317871 4.183883666992188 13.00121688842773 4.037533283233643 13.53663730621338 4.037533283233643 C 14.37330722808838 4.037533283233643 15.17094707489014 4.397323608398438 15.72587776184082 5.020553588867188 C 16.2027473449707 5.555973529815674 16.4552173614502 6.246283531188965 16.4552173614502 6.957323551177979 C 16.4552173614502 8.562363624572754 15.15142726898193 9.875903129577637 13.53663730621338 9.875903129577637 C 13.00121688842773 9.875903129577637 12.49507713317871 9.73076343536377 12.05722713470459 9.477083206176758 C 11.4047269821167 9.08802318572998 10.9095573425293 8.445273399353027 10.72416687011719 7.696423530578613 C 10.52902698516846 8.445273399353027 10.03385734558105 9.078263282775879 9.381357192993164 9.477083206176758 C 9.721627235412598 10.04177379608154 10.17899703979492 10.53816318511963 10.71441745758057 10.90771389007568 C 11.51204776763916 11.49191379547119 12.48531723022461 11.82243347167969 13.53663730621338 11.82243347167969 M 19.37500762939453 21.75386428833008 L 7.698267459869385 21.75386428833008 C 7.051327228546143 21.75386428833008 6.524997234344482 21.22754287719727 6.524997234344482 20.58060264587402 L 6.524997234344482 19.60733413696289 L 6.524997234344482 19.40733337402344 L 6.724997520446777 19.40733337402344 L 18.1975154876709 19.40733337402344 C 18.09234237670898 16.92744636535645 16.04194641113281 14.94223308563232 13.53663730621338 14.94223308563232 C 13.25932693481445 14.94223308563232 13.0103874206543 14.96347332000732 12.77558708190918 15.00716304779053 L 12.77256774902344 15.00772380828857 L 12.76952743530273 15.00819301605225 C 12.06608772277832 15.11684322357178 11.41457748413086 15.38928318023682 10.83308696746826 15.81794357299805 L 10.71476745605469 15.90516376495361 L 10.59620761871338 15.81827354431152 C 10.03497695922852 15.40702342987061 9.367557525634766 15.12673377990723 8.666117668151855 15.00771331787109 L 8.284337043762207 14.94293308258057 L 8.558156967163086 14.66911315917969 C 9.17418098449707 14.0530891418457 9.8748779296875 13.57129859924316 10.64097690582275 13.23702239990234 C 11.53131866455078 12.81145477294922 12.50549411773682 12.595703125 13.53663730621338 12.595703125 C 17.40286636352539 12.595703125 20.54827690124512 15.74110317230225 20.54827690124512 19.60733413696289 L 20.54827690124512 20.58060264587402 C 20.54827690124512 21.22754287719727 20.02194786071777 21.75386428833008 19.37500762939453 21.75386428833008 Z M 13.53663730621338 12.02243328094482 C 12.4655590057373 12.02243328094482 11.44960403442383 11.69332599639893 10.5985221862793 11.07073497772217 C 10.04877090454102 10.69077777862549 9.568663597106934 10.17543697357178 9.210057258605957 9.580303192138672 L 9.107477188110352 9.410083770751953 L 9.277057647705078 9.30643367767334 C 9.897577285766602 8.927163124084473 10.35448741912842 8.321953773498535 10.53062725067139 7.645993709564209 L 10.71718502044678 6.930099010467529 L 10.53124713897705 6.250253677368164 C 10.41919708251953 5.840553283691406 10.2153377532959 5.461273670196533 9.941697120666504 5.153423309326172 C 9.760807037353516 4.94546365737915 9.538337707519531 4.7625732421875 9.279047012329102 4.608203411102295 L 9.107577323913574 4.506123542785645 L 9.209277153015137 4.334423542022705 C 9.566996574401855 3.730525493621826 10.0512056350708 3.211030244827271 10.60969543457031 2.831941843032837 C 11.46551704406738 2.216338157653809 12.4775276184082 1.891003489494324 13.53663730621338 1.891003489494324 C 14.99374771118164 1.891003489494324 16.37854766845703 2.515443563461304 17.33595657348633 3.60421347618103 C 18.15193748474121 4.521223545074463 18.60174751281738 5.712363243103027 18.60174751281738 6.957323551177979 C 18.60174751281738 9.75023365020752 16.32954788208008 12.02243328094482 13.53663730621338 12.02243328094482 Z M 10.7402229309082 6.929012298583984 L 10.91830730438232 7.648363590240479 C 11.08752727508545 8.331883430480957 11.53997707366943 8.935813903808594 12.15965747833252 9.305303573608398 C 12.57739734649658 9.547313690185547 13.05429744720459 9.6759033203125 13.53663730621338 9.6759033203125 C 15.03566741943359 9.6759033203125 16.25521659851074 8.456353187561035 16.25521659851074 6.957323551177979 C 16.25521659851074 6.285553455352783 16.01418685913086 5.644973278045654 15.57652759552002 5.153573513031006 C 15.05815696716309 4.571413516998291 14.31465721130371 4.237533569335938 13.53663730621338 4.237533569335938 C 13.05630683898926 4.237533569335938 12.57927703857422 4.366193294525146 12.15712738037109 4.609613418579102 C 11.53768730163574 4.97899341583252 11.09661769866943 5.561343669891357 10.9177074432373 6.247923374176025 L 10.7402229309082 6.929012298583984 Z"/></g></g><g transform="translate(2.105 2.091)"><g class="a" transform="translate(-2.105 -2.091)"><path class="b" d="M 14.75500869750977 21.80386352539063 L 3.07826828956604 21.80386352539063 C 2.40375828742981 21.80386352539063 1.854998350143433 21.25511360168457 1.854998350143433 20.58060264587402 L 1.854998350143433 19.60733413696289 C 1.854998350143433 15.71353340148926 5.022838592529297 12.54570388793945 8.916638374328613 12.54570388793945 C 9.925847053527832 12.54570388793945 10.93753814697266 12.76898288726807 11.842529296875 13.19142055511475 C 12.61014652252197 13.53062725067139 13.31259536743164 14.0158805847168 13.9304780960083 14.63375377655029 C 15.25151824951172 15.97598361968994 15.97827816009521 17.7418041229248 15.97827816009521 19.60733413696289 L 15.97827816009521 20.58060264587402 C 15.97827816009521 21.25511360168457 15.429518699646 21.80386352539063 14.75500869750977 21.80386352539063 Z M 4.308218002319336 19.35733413696289 L 13.52619457244873 19.35733413696289 C 13.45015048980713 17.95511436462402 12.73719692230225 16.6624870300293 11.58637809753418 15.86220359802246 L 11.58383846282959 15.86043357849121 L 11.58133792877197 15.85860347747803 C 11.02635860443115 15.45193386077881 10.36627864837646 15.17474365234375 9.672458648681641 15.05701351165771 C 9.436798095703125 15.01319313049316 9.190848350524902 14.99223327636719 8.916638374328613 14.99223327636719 C 6.455731868743896 14.99223327636719 4.438515186309814 16.9283561706543 4.308218002319336 19.35733413696289 Z M 8.916638374328613 12.07243347167969 C 6.096158504486084 12.07243347167969 3.801528453826904 9.777803421020508 3.801528453826904 6.957323551177979 C 3.801528453826904 4.136173248291016 6.096158504486084 1.84100341796875 8.916638374328613 1.84100341796875 C 9.984620094299316 1.84100341796875 11.00999736785889 2.169509410858154 11.88201904296875 2.790990352630615 C 12.1829891204834 2.996043682098389 12.46768951416016 3.250831604003906 12.75230884552002 3.569843530654907 C 12.93003845214844 3.764193534851074 13.10026836395264 3.999223470687866 13.28600883483887 4.307263374328613 C 13.77441883087158 5.106943607330322 14.03296852111816 6.023743629455566 14.03296852111816 6.957323551177979 C 14.03296852111816 7.893993377685547 13.77431869506836 8.81053352355957 13.28498840332031 9.607853889465332 C 12.92163467407227 10.21085643768311 12.43333625793457 10.73136615753174 11.87376499176025 11.11167621612549 C 11.0361795425415 11.73124027252197 9.986186981201172 12.07243347167969 8.916638374328613 12.07243347167969 Z M 8.916638374328613 4.287533283233643 C 7.445178508758545 4.287533283233643 6.248058319091797 5.485193252563477 6.248058319091797 6.957323551177979 C 6.248058319091797 8.428783416748047 7.445178508758545 9.625903129577637 8.916638374328613 9.625903129577637 C 9.39601993560791 9.625903129577637 9.850767135620117 9.503527641296387 10.26827621459961 9.262176513671875 C 10.87653923034668 8.889498710632324 11.3242712020874 8.296002388000488 11.4969482421875 7.633383274078369 L 11.49785804748535 7.629883289337158 L 11.49886798858643 7.626423358917236 C 11.55697822570801 7.42720365524292 11.58643817901611 7.202083587646484 11.58643817901611 6.957323551177979 C 11.58643817901611 6.748105525970459 11.55781841278076 6.525961875915527 11.49639320373535 6.258591651916504 C 11.38606452941895 5.85810375213623 11.18648624420166 5.487536430358887 10.91902828216553 5.186643600463867 C 10.74125862121582 4.982283592224121 10.52287864685059 4.802803516387939 10.26815795898438 4.651163578033447 C 9.856597900390625 4.413883686065674 9.388217926025391 4.287533283233643 8.916638374328613 4.287533283233643 Z"/><path class="c" d="M 14.75500869750977 21.55386352539063 C 15.29042816162109 21.55386352539063 15.72827816009521 21.11602401733398 15.72827816009521 20.58060264587402 L 15.72827816009521 19.60733413696289 C 15.72827816009521 17.73886299133301 14.9696683883667 16.04601287841797 13.75369834899902 14.81053352355957 C 13.16948795318604 14.22632312774658 12.48771858215332 13.7494535446167 11.73886871337891 13.4189338684082 C 10.88267803192139 13.01889324188232 9.919178009033203 12.79570388793945 8.916638374328613 12.79570388793945 C 5.160178184509277 12.79570388793945 2.104998350143433 15.85087394714355 2.104998350143433 19.60733413696289 L 2.104998350143433 20.58060264587402 C 2.104998350143433 21.11602401733398 2.533088445663452 21.55386352539063 3.07826828956604 21.55386352539063 L 14.75500869750977 21.55386352539063 M 13.78296852111816 19.60733413696289 L 4.051528453826904 19.60733413696289 C 4.051528453826904 16.92171287536621 6.231008529663086 14.74223327636719 8.916638374328613 14.74223327636719 C 9.189838409423828 14.74223327636719 9.452058792114258 14.76174354553223 9.714278221130371 14.81053352355957 C 10.45458793640137 14.93615341186523 11.14490795135498 15.22886371612549 11.7291088104248 15.65695381164551 C 12.9743480682373 16.52289390563965 13.78296852111816 17.9730339050293 13.78296852111816 19.60733413696289 M 8.916638374328613 11.82243347167969 C 9.958198547363281 11.82243347167969 10.94122791290283 11.49191379547119 11.7291088104248 10.90771389007568 C 12.27427864074707 10.53816318511963 12.73163795471191 10.04177379608154 13.07191848754883 9.477083206176758 C 13.51952838897705 8.747743606567383 13.78296852111816 7.872053623199463 13.78296852111816 6.957323551177979 C 13.78296852111816 6.062113285064697 13.52927875518799 5.185203552246094 13.07191848754883 4.43635368347168 C 12.92556858062744 4.193643569946289 12.76091861724854 3.949713468551636 12.56576824188232 3.736283540725708 C 12.31330871582031 3.453323364257813 12.0401086807251 3.200863361358643 11.73886871337891 2.995963573455811 C 10.92170810699463 2.412983417510986 9.938688278198242 2.09100341796875 8.916638374328613 2.09100341796875 C 6.231008529663086 2.09100341796875 4.051528453826904 4.270483493804932 4.051528453826904 6.957323551177979 C 4.051528453826904 9.633193016052246 6.231008529663086 11.82243347167969 8.916638374328613 11.82243347167969 M 8.916638374328613 4.037533283233643 C 9.44229793548584 4.037533283233643 9.958198547363281 4.183883666992188 10.3960485458374 4.43635368347168 C 10.65826797485352 4.592463493347168 10.90219879150391 4.786383628845215 11.10587882995605 5.020553588867188 C 11.40834808349609 5.360833644866943 11.62177848815918 5.769403457641602 11.73886871337891 6.197493553161621 C 11.79740810394287 6.451183319091797 11.83643817901611 6.703643321990967 11.83643817901611 6.957323551177979 C 11.83643817901611 7.209793567657471 11.80716800689697 7.462253570556641 11.73886871337891 7.696423530578613 C 11.5437183380127 8.445273399353027 11.04854869842529 9.078263282775879 10.3960485458374 9.477083206176758 C 9.958198547363281 9.73076343536377 9.461808204650879 9.875903129577637 8.916638374328613 9.875903129577637 C 7.301848411560059 9.875903129577637 5.998058319091797 8.562363624572754 5.998058319091797 6.957323551177979 C 5.998058319091797 5.341313362121582 7.301848411560059 4.037533283233643 8.916638374328613 4.037533283233643 M 14.75500869750977 22.05386352539063 L 3.07826828956604 22.05386352539063 C 2.265908479690552 22.05386352539063 1.604998350143433 21.39296340942383 1.604998350143433 20.58060264587402 L 1.604998350143433 19.60733413696289 C 1.604998350143433 15.71299171447754 4.665618419647217 12.51997852325439 8.507671356201172 12.30700397491455 C 5.739674091339111 12.09736919403076 3.551528453826904 9.778064727783203 3.551528453826904 6.957323551177979 C 3.551528453826904 3.998323440551758 5.958308219909668 1.59100341796875 8.916638374328613 1.59100341796875 C 10.03592205047607 1.59100341796875 11.11049842834473 1.934918999671936 12.02458381652832 2.585602998733521 C 12.34120273590088 2.801561117172241 12.63964748382568 3.06836986541748 12.9367733001709 3.40107798576355 C 13.12722778320313 3.609728097915649 13.30628490447998 3.856745481491089 13.50009822845459 4.178163528442383 C 14.01174831390381 5.015883445739746 14.28296852111816 5.977743625640869 14.28296852111816 6.957323551177979 C 14.28296852111816 7.940173625946045 14.01154804229736 8.901933670043945 13.49806880950928 9.738613128662109 C 13.11818218231201 10.36906337738037 12.60601711273193 10.91532039642334 12.01859664916992 11.31550884246826 C 11.24453544616699 11.88689804077148 10.29884433746338 12.23237800598145 9.319162368774414 12.30708980560303 C 10.22840213775635 12.35844039916992 11.12864780426025 12.58275508880615 11.94538021087646 12.96354579925537 C 12.74060821533203 13.31524848937988 13.46796894073486 13.81770420074463 14.10724830627441 14.45698356628418 C 15.47600841522217 15.84768390655518 16.22827911376953 17.67577362060547 16.22827911376953 19.60733413696289 L 16.22827911376953 20.58060264587402 C 16.22827911376953 21.39296340942383 15.56736850738525 22.05386352539063 14.75500869750977 22.05386352539063 Z M 4.579986095428467 19.10733413696289 L 13.25421905517578 19.10733413696289 C 13.11299705505371 17.88460159301758 12.45850276947021 16.7731876373291 11.44364833831787 16.06745338439941 L 11.43856811523438 16.06392288208008 L 11.43356800079346 16.06026268005371 C 10.9097785949707 15.67644309997559 10.28633880615234 15.41475391387939 9.63062858581543 15.30348300933838 L 9.626718521118164 15.30282306671143 L 9.622817993164063 15.30209350585938 C 9.406318664550781 15.26181316375732 9.175328254699707 15.24223327636719 8.916638374328613 15.24223327636719 C 6.678798675537109 15.24223327636719 4.828861713409424 16.93504905700684 4.579986095428467 19.10733413696289 Z M 8.916638374328613 4.537533283233643 C 7.583028316497803 4.537533283233643 6.498058319091797 5.623043537139893 6.498058319091797 6.957323551177979 C 6.498058319091797 8.290933609008789 7.583028316497803 9.375903129577637 8.916638374328613 9.375903129577637 C 9.350399971008301 9.375903129577637 9.762057304382324 9.265385627746582 10.14024639129639 9.04742431640625 C 10.69257164001465 8.708105087280273 11.09874725341797 8.170034408569336 11.25502872467041 7.570333480834961 L 11.25684833526611 7.563353538513184 L 11.25886821746826 7.556423664093018 C 11.31033802032471 7.379953384399414 11.33643817901611 7.178383350372314 11.33643817901611 6.957323551177979 C 11.33643817901611 6.768819332122803 11.31021213531494 6.566036224365234 11.25397682189941 6.319965839385986 C 11.15349960327148 5.958156108856201 10.97319602966309 5.623889446258545 10.73216819763184 5.352733612060547 L 10.73038864135742 5.350723266601563 L 10.72861862182617 5.348693370819092 C 10.57075595855713 5.167201995849609 10.37381935119629 5.005395889282227 10.14323806762695 4.867748260498047 C 9.772640228271484 4.654793262481689 9.337170600891113 4.537533283233643 8.916638374328613 4.537533283233643 Z"/></g></g></g></svg>