<svg xmlns="http://www.w3.org/2000/svg" width="20.104" height="20.104" viewBox="0 0 20.104 20.104"><defs><style>.a{fill:none;stroke:#696d71;stroke-width:2px;}</style></defs><path class="a" d="M20.108,15.451a11.509,11.509,0,0,1-3.55-.563.983.983,0,0,0-1.016.241l-3.611,3.624A15.271,15.271,0,0,1,5,11.884L8.994,8.572a1.026,1.026,0,0,0,.241-1.026A11.217,11.217,0,0,1,8.672,4a1,1,0,0,0-1-1H4.2C3.654,3,3,3.241,3,4A17.251,17.251,0,0,0,20.108,21.1a1.055,1.055,0,0,0,1-1.187v-3.47a1,1,0,0,0-1-1Z" transform="translate(-2 -2)"/></svg>