<svg xmlns="http://www.w3.org/2000/svg" width="31.295" height="20.723" viewBox="0 0 31.295 20.723"><defs><style>.a{fill:#ee5c23;}</style></defs><g transform="translate(-38.844 -0.37)"><g transform="translate(38.844 0.37)"><path class="a" d="M50.37,2.586c.09.161.18.32.26.481a1.561,1.561,0,0,1,.31-.221,2.917,2.917,0,0,1,4.4,2.521,2.923,2.923,0,0,1-2.92,2.919,2.979,2.979,0,0,1-1.48-.4,2.189,2.189,0,0,1-.32-.23,3.246,3.246,0,0,1-.26.49,4.775,4.775,0,0,1-.87,1.08.513.513,0,0,0,.11.091,4.764,4.764,0,0,0,2.82.92,4.87,4.87,0,0,0,0-9.74,4.771,4.771,0,0,0-2.82.909.711.711,0,0,0-.1.081c.1.1.2.209.3.32A5.385,5.385,0,0,1,50.37,2.586Z" transform="translate(-38.719 -0.497)"/><path class="a" d="M52.42,11.206a6.494,6.494,0,0,0-2.79.611,6.6,6.6,0,0,1,1.34,1.05c.13.13.25.269.37.409a2.757,2.757,0,0,1,.28-.06,4.186,4.186,0,0,1,.8-.06,4.859,4.859,0,0,1,4.86,4.86H53.09v.971a1.465,1.465,0,0,1-.37.979h5.54a.979.979,0,0,0,.97-.979v-.971A6.818,6.818,0,0,0,52.42,11.206Z" transform="translate(-38.719 0.757)"/><path class="a" d="M45.78,10.237a4.734,4.734,0,0,0,2.81-.92,4.442,4.442,0,0,0,.36-.27c.02-.021.05-.04.08-.071a.42.42,0,0,0,.07-.07,4.691,4.691,0,0,0,1.14-1.6.544.544,0,0,0,.05-.111,1.038,1.038,0,0,0,.04-.1,4.741,4.741,0,0,0,.32-1.729,4.882,4.882,0,0,0-.33-1.731.308.308,0,0,0-.04-.1.294.294,0,0,0-.04-.1v-.01a6.25,6.25,0,0,0-.3-.581,4.316,4.316,0,0,0-.51-.7c-.1-.12-.21-.23-.32-.339a.626.626,0,0,1-.08-.07.566.566,0,0,1-.07-.06,3.081,3.081,0,0,0-.36-.271,4.864,4.864,0,1,0-2.82,8.831Zm0-7.791a3.008,3.008,0,0,1,1.48.4,3.061,3.061,0,0,1,.71.581,2.876,2.876,0,0,1,.63,1.179,3.312,3.312,0,0,1,.1.761,2.581,2.581,0,0,1-.1.739,2.9,2.9,0,0,1-2.82,2.18,2.92,2.92,0,0,1,0-5.84Z" transform="translate(-38.97 -0.497)"/><path class="a" d="M50.95,13.586c-.01-.029-.04-.05-.07-.079-.01-.031-.04-.051-.07-.08-.06-.071-.12-.141-.19-.211a6.532,6.532,0,0,0-1.52-1.14c-.03-.019-.07-.04-.11-.06a.335.335,0,0,0-.1-.05,2.778,2.778,0,0,0-.29-.14,6.664,6.664,0,0,0-2.82-.62,6.818,6.818,0,0,0-6.81,6.81v.971a.973.973,0,0,0,.97.979H51.62a.973.973,0,0,0,.97-.979V17.916a.3.3,0,0,0-.01-.1A6.711,6.711,0,0,0,50.95,13.586Zm-.3,4.43H40.92a4.859,4.859,0,0,1,4.86-4.86,4.186,4.186,0,0,1,.8.06,4.019,4.019,0,0,1,.58.14,4.478,4.478,0,0,1,1.43.711,4.773,4.773,0,0,1,2.05,3.75.166.166,0,0,1,0,.1A.343.343,0,0,1,50.65,18.016Z" transform="translate(-38.97 0.757)"/></g><path class="a" d="M69.568,9.519H64.839V4.386H62.606V9.519H57.877v2.424h4.729v5.133h2.233V11.943h4.729Z" transform="translate(0.571)"/></g></svg>