<svg xmlns="http://www.w3.org/2000/svg" xmlns:xlink="http://www.w3.org/1999/xlink" version="1.1" x="0px" y="0px" viewBox="0 0 139 173.75" enable-background="new 0 0 139 139" xml:space="preserve"><path d="M69.499,11.666c-31.94,0-57.833,25.894-57.833,57.834c0,31.939,25.893,57.835,57.833,57.835s57.836-25.896,57.836-57.835  C127.335,37.56,101.439,11.666,69.499,11.666z M54.451,52.288c0.8-0.8,1.848-1.2,2.896-1.2s2.095,0.4,2.895,1.2l5.127,5.126v-1.508  V35.755c0-2.262,1.833-4.095,4.095-4.095s4.095,1.833,4.095,4.095v20.151v1.785l1.785-1.785l0,0l3.619-3.618  c0.8-0.8,1.847-1.2,2.895-1.2s2.096,0.4,2.896,1.2c0.984,0.983,1.358,2.344,1.131,3.618l0,0c0,0.001-0.001,0.002-0.001,0.003  c-0.017,0.092-0.046,0.181-0.069,0.271c-0.035,0.141-0.073,0.281-0.124,0.418c-0.034,0.092-0.073,0.182-0.114,0.272  c-0.064,0.143-0.138,0.28-0.219,0.416c-0.043,0.072-0.083,0.144-0.131,0.213c-0.14,0.202-0.293,0.398-0.473,0.578l-5.828,5.828  l-6.397,6.397c-0.801,0.8-1.848,1.197-2.895,1.197c-0.01,0-0.02,0-0.03,0c-0.01,0-0.021,0-0.03,0c-1.047,0-2.094-0.397-2.895-1.197  l-6.397-6.397l-5.828-5.828c-0.18-0.18-0.333-0.375-0.471-0.577c-0.049-0.071-0.089-0.144-0.133-0.216  c-0.08-0.135-0.153-0.271-0.217-0.412c-0.042-0.092-0.082-0.183-0.116-0.277c-0.049-0.134-0.086-0.27-0.121-0.407  c-0.024-0.095-0.055-0.187-0.072-0.283c0,0,0,0,0,0l0,0C53.093,54.632,53.466,53.271,54.451,52.288z M100.952,92.371  c0,5.528-5.42,9.858-12.34,9.858H50.39c-6.919,0-12.34-4.33-12.34-9.858V65.765c0-4.672,3.878-8.478,9.255-9.547  c0.233,2.306,1.243,4.444,2.905,6.105l1.584,1.584H50.39c-2.801,0-4.34,1.396-4.34,1.858v26.606c0,0.463,1.539,1.858,4.34,1.858  h38.223c2.801,0,4.34-1.396,4.34-1.858V65.765c0-0.462-1.539-1.858-4.34-1.858h-1.203l1.585-1.585  c1.651-1.65,2.658-3.773,2.898-6.064c5.275,1.123,9.06,4.893,9.06,9.508V92.371z" fill="#ee5c23" fill-opacity="1"/></svg>