<svg xmlns="http://www.w3.org/2000/svg" width="24.339" height="19.375" viewBox="0 0 24.339 19.375"><defs><style>.a{fill:none;stroke:#9ca0a4;stroke-linecap:round;stroke-linejoin:round;stroke-width:2px;}</style></defs><path class="a" d="M20.375,9.964V7.482A2.482,2.482,0,0,0,17.893,5H5.482A2.482,2.482,0,0,0,3,7.482v7.446a2.482,2.482,0,0,0,2.482,2.482H7.964m2.482,4.964H22.857a2.482,2.482,0,0,0,2.482-2.482V12.446a2.482,2.482,0,0,0-2.482-2.482H10.446a2.482,2.482,0,0,0-2.482,2.482v7.446A2.482,2.482,0,0,0,10.446,22.375Zm8.687-6.205a2.482,2.482,0,1,1-2.482-2.482A2.482,2.482,0,0,1,19.134,16.17Z" transform="translate(-2 -4)"/></svg>