<svg xmlns="http://www.w3.org/2000/svg" width="26.204" height="21.042" viewBox="0 0 26.204 21.042"><defs><style>.a{fill:#ee5c23;}</style></defs><g transform="translate(-28.84 0.169)"><g transform="translate(28.84 -0.004)"><path class="a" d="M52.891,9.1v8.025a1.606,1.606,0,0,1-1.6,1.594H37.926a1.6,1.6,0,0,1-1.593-1.594V9.1A1.6,1.6,0,0,1,37.926,7.5h5.6V5.35h-5.6A3.75,3.75,0,0,0,34.18,9.1v4.266H32.587a1.59,1.59,0,0,1-1.593-1.594V3.756A1.6,1.6,0,0,1,32.587,2.15H45.947V0H32.587a3.76,3.76,0,0,0-3.747,3.76V11.77a3.75,3.75,0,0,0,3.747,3.749H34.18v1.594a3.75,3.75,0,0,0,3.747,3.76H51.287a3.76,3.76,0,0,0,3.757-3.749V9.1Z" transform="translate(-28.84 0.004)"/></g><path class="a" d="M55.222.848H51.444V-2.93H49.66V.848H45.882V2.632H49.66V6.411h1.784V2.632h3.778Z" transform="translate(-0.178 2.761)"/><path class="a" d="M45.95,9.706a3.483,3.483,0,1,0,.98,2.95,2.629,2.629,0,0,0,.04-.49A3.469,3.469,0,0,0,45.95,9.706Zm-2.46,3.94a1.485,1.485,0,1,1,1.48-1.48A1.477,1.477,0,0,1,43.49,13.646Z" transform="translate(1.198 1.053)"/></g></svg>