<svg xmlns:dc="http://purl.org/dc/elements/1.1/" xmlns:cc="http://creativecommons.org/ns#" xmlns:rdf="http://www.w3.org/1999/02/22-rdf-syntax-ns#" xmlns:svg="http://www.w3.org/2000/svg" xmlns="http://www.w3.org/2000/svg" xmlns:sodipodi="http://sodipodi.sourceforge.net/DTD/sodipodi-0.dtd" xmlns:inkscape="http://www.inkscape.org/namespaces/inkscape" viewBox="0 0 25 31.25" version="1.1" x="0px" y="0px"><g transform="translate(0,-1027.3622)"><path style="" d="m 12.5,1027.3622 a 12.5,12.5 0 0 0 -12.5,12.5 12.5,12.5 0 0 0 12.5,12.5 12.5,12.5 0 0 0 12.5,-12.5 12.5,12.5 0 0 0 -12.5,-12.5 z m 2.517578,5.998 0,0.01 0.0039,0 3.960938,3.9902 0.01172,0 0,1 -4.982422,0 0.0059,-3.998 -6.017578,0 0,11.9863 c 2.897889,-10e-5 6.138945,-2e-4 8.994141,0 l 0,1 c -3.013759,-2e-4 -6.480246,0 -9.494141,0 l -0.5,0 0,-13.9863 8.017578,0 z m -0.002,1.418 -0.0039,2.582 2.566406,0 -2.5625,-2.582 z m -6.0214844,1.586 4.0000004,0 0,1 -4.0000004,0 0,-1 z m 0,2 4.0000004,0 0,1 -4.0000004,0 0,-1 z m 9.5000004,1.0996 1.578125,2.1054 0.599609,0.8008 -1.681641,0 0,4.9942 -1,0 0,-4.9942 -1.683593,0 2.1875,-2.9062 z m -9.5000004,0.9004 6.0000004,0 0,1 -6.0000004,0 0,-1 z m 0,2 6.0000004,0 0,1 -6.0000004,0 0,-1 z m 0,2 6.0000004,0 0,1 -6.0000004,0 0,-1 z" fill="#ee5c23" fill-opacity="1" fill-rule="evenodd" stroke="none"/></g></svg>