<svg xmlns="http://www.w3.org/2000/svg" width="27.584" height="21.242" viewBox="0 0 27.584 21.242">
  <g id="Group_1210" data-name="Group 1210" transform="translate(-50.555 0.487)">
    <g id="Path_2781" data-name="Path 2781" transform="translate(50.555 -0.486)">
      <path id="Path_2781-2" data-name="Path 2781" d="M56.932,11.2A1.052,1.052,0,0,0,55.87,12.26v3.186a1.062,1.062,0,1,0,2.124,0V12.26A1.058,1.058,0,0,0,56.932,11.2Zm4.248,0a1.052,1.052,0,0,0-1.062,1.062v3.186a1.062,1.062,0,0,0,2.124,0V12.26A1.058,1.058,0,0,0,61.18,11.2Zm4.248,0a1.052,1.052,0,0,0-1.062,1.062v3.186a1.062,1.062,0,1,0,2.124,0V12.26A1.058,1.058,0,0,0,65.428,11.2Zm-8.5,0A1.052,1.052,0,0,0,55.87,12.26v3.186a1.062,1.062,0,1,0,2.124,0V12.26A1.058,1.058,0,0,0,56.932,11.2Zm4.248,0a1.052,1.052,0,0,0-1.062,1.062v3.186a1.062,1.062,0,0,0,2.124,0V12.26A1.058,1.058,0,0,0,61.18,11.2Zm4.248,0a1.052,1.052,0,0,0-1.062,1.062v3.186a1.062,1.062,0,1,0,2.124,0V12.26A1.058,1.058,0,0,0,65.428,11.2Zm-8.5,0A1.052,1.052,0,0,0,55.87,12.26v3.186a1.062,1.062,0,1,0,2.124,0V12.26A1.058,1.058,0,0,0,56.932,11.2Zm4.248,0a1.052,1.052,0,0,0-1.062,1.062v3.186a1.062,1.062,0,0,0,2.124,0V12.26A1.058,1.058,0,0,0,61.18,11.2Zm4.248,0a1.052,1.052,0,0,0-1.062,1.062v3.186a1.062,1.062,0,1,0,2.124,0V12.26A1.058,1.058,0,0,0,65.428,11.2Zm5.31,7.434v-2.1H68.614v2.1H53.746V9.074h7.965V6.95H51.622a1.062,1.062,0,0,0,0,2.124v9.558a1.062,1.062,0,0,0,0,2.124H70.738a1.062,1.062,0,0,0,0-2.124Zm-5.31-2.124a1.065,1.065,0,0,0,1.062-1.062V12.26a1.062,1.062,0,1,0-2.124,0v3.186A1.058,1.058,0,0,0,65.428,16.508Zm-5.31-4.248v3.186a1.062,1.062,0,0,0,2.124,0V12.26a1.062,1.062,0,0,0-2.124,0Zm-4.248,0v3.186a1.062,1.062,0,1,0,2.124,0V12.26a1.062,1.062,0,1,0-2.124,0ZM65.428,11.2a1.052,1.052,0,0,0-1.062,1.062v3.186a1.062,1.062,0,1,0,2.124,0V12.26A1.058,1.058,0,0,0,65.428,11.2Zm-4.248,0a1.052,1.052,0,0,0-1.062,1.062v3.186a1.062,1.062,0,0,0,2.124,0V12.26A1.058,1.058,0,0,0,61.18,11.2Zm-4.248,0A1.052,1.052,0,0,0,55.87,12.26v3.186a1.062,1.062,0,1,0,2.124,0V12.26A1.058,1.058,0,0,0,56.932,11.2Zm8.5,0a1.052,1.052,0,0,0-1.062,1.062v3.186a1.062,1.062,0,1,0,2.124,0V12.26A1.058,1.058,0,0,0,65.428,11.2Zm-4.248,0a1.052,1.052,0,0,0-1.062,1.062v3.186a1.062,1.062,0,0,0,2.124,0V12.26A1.058,1.058,0,0,0,61.18,11.2Zm-4.248,0A1.052,1.052,0,0,0,55.87,12.26v3.186a1.062,1.062,0,1,0,2.124,0V12.26A1.058,1.058,0,0,0,56.932,11.2Zm0,0A1.052,1.052,0,0,0,55.87,12.26v3.186a1.062,1.062,0,1,0,2.124,0V12.26A1.058,1.058,0,0,0,56.932,11.2Zm4.248,0a1.052,1.052,0,0,0-1.062,1.062v3.186a1.062,1.062,0,0,0,2.124,0V12.26A1.058,1.058,0,0,0,61.18,11.2Zm4.248,0a1.052,1.052,0,0,0-1.062,1.062v3.186a1.062,1.062,0,1,0,2.124,0V12.26A1.058,1.058,0,0,0,65.428,11.2Zm0,0a1.052,1.052,0,0,0-1.062,1.062v3.186a1.062,1.062,0,1,0,2.124,0V12.26A1.058,1.058,0,0,0,65.428,11.2Zm-4.248,0a1.052,1.052,0,0,0-1.062,1.062v3.186a1.062,1.062,0,0,0,2.124,0V12.26A1.058,1.058,0,0,0,61.18,11.2Zm-4.248,0A1.052,1.052,0,0,0,55.87,12.26v3.186a1.062,1.062,0,1,0,2.124,0V12.26A1.058,1.058,0,0,0,56.932,11.2ZM61.6-.4a1.1,1.1,0,0,0-.86,0L51.187,3.849a1.063,1.063,0,1,0,.86,1.943L61.18,1.736l7.2,3.207V2.617Z" transform="translate(-50.555 0.487)" fill="#ee5c23"/>
    </g>
    <path id="Path_2782" data-name="Path 2782" d="M77.254,6.757H72.232V1.735H69.86V6.757H64.838V9.129H69.86v5.022h2.371V9.129h5.022Z" transform="translate(0.885 0.138)" fill="#ee5c23"/>
  </g>
</svg>
