<svg xmlns="http://www.w3.org/2000/svg" width="10.453" height="14.386" viewBox="0 0 10.453 14.386"><defs><style>.a{fill:#9ca0a4;}</style></defs><path class="a" d="M-444.733,39.976q-2.25,0-4.5,0a.652.652,0,0,1-.71-.74.7.7,0,0,1,.24-.425q2.137-2.134,4.271-4.269l.227-.227a.633.633,0,0,1,.963,0q1.234,1.23,2.464,2.463,1.035,1.036,2.071,2.073a.649.649,0,0,1-.157,1.064.812.812,0,0,1-.383.063Z" transform="translate(449.953 -34.092)"/><path class="a" d="M-444.728,46.864q2.26,0,4.52,0a.65.65,0,0,1,.7.731.642.642,0,0,1-.209.4l-4.523,4.522a.636.636,0,0,1-.988-.011q-1.864-1.862-3.727-3.727c-.261-.261-.52-.524-.784-.782a.633.633,0,0,1-.172-.717.644.644,0,0,1,.643-.418Q-447,46.863-444.728,46.864Z" transform="translate(449.954 -38.363)"/></svg>