<svg xmlns="http://www.w3.org/2000/svg" width="22.152" height="22.39" viewBox="0 0 22.152 22.39"><defs><style>.a{fill:none;stroke:#ee5c23;stroke-linecap:round;stroke-linejoin:round;stroke-width:2px;}</style></defs><path class="a" d="M10.662,15.461h-5.4a2.266,2.266,0,0,1-2.027-3.278L7.2,4.253A2.266,2.266,0,0,1,9.231,3h4.55a2.252,2.252,0,0,1,.549.068l4.26,1.065M10.662,15.461v5.664a2.266,2.266,0,0,0,2.266,2.266h.108a1.025,1.025,0,0,0,1.025-1.025,4.088,4.088,0,0,1,.689-2.272l3.842-5.765V4.133M10.662,15.461h2.266M18.591,4.133h2.266A2.266,2.266,0,0,1,23.123,6.4v6.8a2.266,2.266,0,0,1-2.266,2.266H18.025" transform="translate(-1.971 -2)"/></svg>