<svg xmlns="http://www.w3.org/2000/svg" width="22.152" height="22.39" viewBox="0 0 22.152 22.39"><defs><style>.a{fill:none;stroke:#ee5c23;stroke-linecap:round;stroke-linejoin:round;stroke-width:2px;}</style></defs><path class="a" d="M15.461,10.929h5.4a2.266,2.266,0,0,1,2.027,3.278l-3.965,7.929a2.266,2.266,0,0,1-2.028,1.253h-4.55a2.252,2.252,0,0,1-.549-.068l-4.26-1.065m7.929-11.328V5.266A2.266,2.266,0,0,0,13.2,3h-.108a1.025,1.025,0,0,0-1.025,1.025A4.088,4.088,0,0,1,11.374,6.3L7.531,12.062v10.2m7.929-11.328H13.2M7.531,22.257H5.266A2.266,2.266,0,0,1,3,19.992V13.2a2.266,2.266,0,0,1,2.266-2.266H8.1" transform="translate(-2 -2)"/></svg>