<svg xmlns="http://www.w3.org/2000/svg" width="18.228" height="16.37" viewBox="0 0 18.228 16.37"><defs><style>.a{fill:none;stroke:#696d71;stroke-linecap:round;stroke-linejoin:round;stroke-width:1.5px;}</style></defs><path class="a" d="M9.505,5.788H4.859A1.859,1.859,0,0,0,3,7.647v8.364A1.859,1.859,0,0,0,4.859,17.87H17.87a1.859,1.859,0,0,0,1.859-1.859V7.647A1.859,1.859,0,0,0,17.87,5.788H13.223m-3.717,0V4.859a1.859,1.859,0,0,1,3.717,0v.929m-3.717,0a1.859,1.859,0,0,0,3.717,0M8.576,13.223a1.859,1.859,0,1,0-1.859-1.859A1.859,1.859,0,0,0,8.576,13.223Zm0,0a2.792,2.792,0,0,1,2.63,1.859m-2.63-1.859a2.789,2.789,0,0,0-2.63,1.859m9.206-5.208v4.854" transform="translate(-2.25 -2.25)"/></svg>