<svg xmlns="http://www.w3.org/2000/svg" width="16.162" height="14.533" viewBox="0 0 16.162 14.533"><defs><style>.a{fill:none;stroke:#696d71;stroke-linecap:round;stroke-linejoin:round;stroke-width:1.5px;}</style></defs><path class="a" d="M16.033,17.033H4.629A1.629,1.629,0,0,1,3,15.4V5.629A1.629,1.629,0,0,1,4.629,4h8.145A1.629,1.629,0,0,1,14.4,5.629v.815m1.629,10.589A1.629,1.629,0,0,1,14.4,15.4V6.444m1.629,10.589A1.629,1.629,0,0,0,17.662,15.4V8.073a1.629,1.629,0,0,0-1.629-1.629H14.4M11.145,4H7.887M6.258,13.774h4.887M6.258,7.258h4.887v3.258H6.258Z" transform="translate(-2.25 -3.25)"/></svg>